<svg version="1.1" xmlns="http://www.w3.org/2000/svg" viewBox="0 0 612.669635481112 466.3054692578585" width="1225.339270962224" height="932.610938515717">
  <!-- svg-source:excalidraw -->
  
  <defs>
    <style class="style-fonts">
      @font-face {
        font-family: "Virgil";
        src: url("https://excalidraw.com/Virgil.woff2");
      }
      @font-face {
        font-family: "Cascadia";
        src: url("https://excalidraw.com/Cascadia.woff2");
      }
      @font-face {
        font-family: "Assistant";
        src: url("https://app.excalidraw.com//dist/excalidraw-assets/Assistant-Regular.woff2");
      }
    </style>
    
  </defs>
  <rect x="0" y="0" width="612.669635481112" height="466.3054692578585" fill="#ffffff"></rect><g stroke-linecap="round" transform="translate(346.24938111866504 203.1096079805484) rotate(0 49.515547849083305 46.63608073143632)"><path d="M59.99 1.29 C67.78 2.03, 76.31 7.21, 82.3 12.16 C88.29 17.1, 93.34 23.79, 95.93 30.96 C98.53 38.13, 99.42 47.58, 97.85 55.2 C96.27 62.81, 92.04 70.59, 86.46 76.66 C80.88 82.73, 72.11 88.92, 64.37 91.59 C56.64 94.27, 47.96 94.21, 40.05 92.69 C32.15 91.18, 23.26 87.63, 16.93 82.51 C10.6 77.38, 4.7 69.37, 2.07 61.96 C-0.56 54.56, -0.51 45.91, 1.12 38.07 C2.75 30.22, 6.28 20.85, 11.85 14.87 C17.42 8.89, 25.67 4.35, 34.57 2.19 C43.47 0.03, 59.21 1.29, 65.26 1.92 C71.31 2.56, 71.29 5.33, 70.88 6 M30.19 3.94 C36.9 0.14, 47.14 -1.01, 54.93 -0.35 C62.73 0.32, 70.36 3.18, 76.97 7.93 C83.59 12.68, 90.82 21.07, 94.63 28.15 C98.44 35.24, 100.78 42.99, 99.82 50.45 C98.87 57.91, 93.94 66.47, 88.9 72.92 C83.87 79.38, 76.75 85.71, 69.62 89.19 C62.48 92.68, 54.19 94.64, 46.11 93.85 C38.04 93.05, 28.19 89.14, 21.19 84.41 C14.19 79.68, 7.55 72.38, 4.12 65.45 C0.68 58.53, -0.26 50.38, 0.59 42.85 C1.43 35.32, 4.66 26.69, 9.19 20.27 C13.73 13.85, 24.33 6.77, 27.78 4.32 C31.23 1.88, 29.2 4.98, 29.88 5.6" stroke="#1e1e1e" stroke-width="2" fill="none"></path></g><g stroke-linecap="round"><g transform="translate(200.8785002811128 123.52101740256967) rotate(0 -45.716510204385486 47.87372761875099)"><path d="M-0.75 -0.26 C-15.99 15.54, -77.42 78.52, -92.38 94.58 M1.06 -1.45 C-13.73 14.48, -74.86 79.6, -90.17 95.5" stroke="#1e1e1e" stroke-width="2" fill="none"></path></g><g transform="translate(200.8785002811128 123.52101740256967) rotate(0 -45.716510204385486 47.87372761875099)"><path d="M-80.2 72.57 C-82.92 76.05, -86.65 84.29, -90.17 95.5 M-80.2 72.57 C-82.54 79.59, -86.26 87.81, -90.17 95.5" stroke="#1e1e1e" stroke-width="2" fill="none"></path></g><g transform="translate(200.8785002811128 123.52101740256967) rotate(0 -45.716510204385486 47.87372761875099)"><path d="M-67.79 84.34 C-73.25 85.11, -79.76 90.72, -90.17 95.5 M-67.79 84.34 C-74.25 87.51, -82.04 91.86, -90.17 95.5" stroke="#1e1e1e" stroke-width="2" fill="none"></path></g></g><mask></mask><g stroke-linecap="round"><g transform="translate(293.71989626829054 117.50983472901407) rotate(0 36.819633624267226 39.87993258970414)"><path d="M-0.95 -1.17 C11.6 12.22, 62.06 66.59, 74.56 80.1 M0.76 0.83 C13.29 13.87, 61.98 64.75, 74.1 78.16" stroke="#1e1e1e" stroke-width="2" fill="none"></path></g><g transform="translate(293.71989626829054 117.50983472901407) rotate(0 36.819633624267226 39.87993258970414)"><path d="M51.82 66.83 C55.14 71.24, 62.97 73.07, 74.1 78.16 M51.82 66.83 C59.3 70.64, 66.47 73.54, 74.1 78.16" stroke="#1e1e1e" stroke-width="2" fill="none"></path></g><g transform="translate(293.71989626829054 117.50983472901407) rotate(0 36.819633624267226 39.87993258970414)"><path d="M64.32 55.15 C64.64 62.24, 69.49 66.85, 74.1 78.16 M64.32 55.15 C67.99 62.56, 71.25 69.1, 74.1 78.16" stroke="#1e1e1e" stroke-width="2" fill="none"></path></g></g><mask></mask><g stroke-linecap="round"><g transform="translate(355.9539350322102 287.93886430485463) rotate(0 -45.91320514165818 38.32616358399696)"><path d="M0.92 0.34 C-14.16 13.34, -76.14 64.19, -91.42 76.81 M-0.05 -0.52 C-15.17 12.79, -77 65.5, -92.16 78.42" stroke="#1e1e1e" stroke-width="2" fill="none"></path></g><g transform="translate(355.9539350322102 287.93886430485463) rotate(0 -45.91320514165818 38.32616358399696)"><path d="M-79.83 56.67 C-82.2 62.25, -85.24 68.11, -92.16 78.42 M-79.83 56.67 C-82.18 61.57, -86.79 68.33, -92.16 78.42" stroke="#1e1e1e" stroke-width="2" fill="none"></path></g><g transform="translate(355.9539350322102 287.93886430485463) rotate(0 -45.91320514165818 38.32616358399696)"><path d="M-68.74 69.69 C-73.43 72.47, -78.92 75.46, -92.16 78.42 M-68.74 69.69 C-73.88 71.38, -81.23 74.92, -92.16 78.42" stroke="#1e1e1e" stroke-width="2" fill="none"></path></g></g><mask></mask><g stroke-linecap="round"><g transform="translate(435.7741024252464 294.31677481330826) rotate(0 33.336848007257686 34.04957796284293)"><path d="M0.4 0.15 C11.53 11.34, 56.58 56.11, 67.71 67.46 M-0.85 -0.81 C10.14 10.49, 56.05 56.92, 67.31 68.67" stroke="#1e1e1e" stroke-width="2" fill="none"></path></g><g transform="translate(435.7741024252464 294.31677481330826) rotate(0 33.336848007257686 34.04957796284293)"><path d="M44.78 57.82 C53.56 63.56, 60.73 66.76, 67.31 68.67 M44.78 57.82 C51 62.24, 58.8 65.05, 67.31 68.67" stroke="#1e1e1e" stroke-width="2" fill="none"></path></g><g transform="translate(435.7741024252464 294.31677481330826) rotate(0 33.336848007257686 34.04957796284293)"><path d="M57.02 45.88 C61.22 56.16, 63.78 63.86, 67.31 68.67 M57.02 45.88 C59.45 54, 63.39 60.58, 67.31 68.67" stroke="#1e1e1e" stroke-width="2" fill="none"></path></g></g><mask></mask><g stroke-linecap="round" transform="translate(200.24701947436006 10) rotate(0 55.50850123095188 55.22128538786728)"><path d="M34.03 5.18 C41.92 0.95, 53.08 0.02, 62.17 0.87 C71.26 1.73, 81.26 4.82, 88.59 10.3 C95.92 15.78, 102.38 25.02, 106.14 33.75 C109.91 42.48, 112.3 53.68, 111.17 62.7 C110.04 71.72, 105.12 80.71, 99.36 87.89 C93.6 95.07, 85.04 101.95, 76.61 105.79 C68.17 109.62, 57.76 111.95, 48.76 110.91 C39.75 109.88, 29.99 105.3, 22.57 99.56 C15.16 93.83, 8 84.99, 4.25 76.5 C0.5 68.02, -1.17 57.76, 0.07 48.66 C1.31 39.57, 5.38 29.67, 11.67 21.93 C17.96 14.19, 32.89 5.34, 37.83 2.24 C42.76 -0.85, 40.99 2.25, 41.27 3.34 M47.09 -0.88 C55.67 -3.15, 68.26 -0.76, 76.72 3.05 C85.17 6.85, 92.38 14.59, 97.83 21.94 C103.29 29.29, 107.97 38.38, 109.46 47.16 C110.96 55.93, 110.26 66.05, 106.8 74.6 C103.34 83.15, 95.82 92.38, 88.69 98.48 C81.57 104.57, 72.79 109.96, 64.04 111.17 C55.29 112.38, 45.08 109.33, 36.19 105.72 C27.31 102.11, 16.76 96.48, 10.74 89.48 C4.73 82.48, 1.14 72.76, 0.1 63.7 C-0.94 54.64, 1.05 43.75, 4.52 35.13 C8 26.52, 13.88 17.89, 20.95 12 C28.01 6.11, 42.39 1.61, 46.91 -0.2 C51.44 -2.02, 47.75 0.01, 48.09 1.11" stroke="#1e1e1e" stroke-width="2" fill="none"></path></g><g transform="translate(243.27665899913882 50.942151796326925) rotate(0 12.728424072265625 14.231788227941479)"><text x="12.728424072265625" y="0" font-family="Virgil, Segoe UI Emoji" font-size="22.77086116470646px" fill="#1e1e1e" text-anchor="middle" style="white-space: pre;" direction="ltr" dominant-baseline="text-before-edge">r0</text></g><g stroke-linecap="round" transform="translate(159.94518760434767 378.4163491849722) rotate(0 85.5090371000033 38.444843697224314)"><path d="M19.22 0 C49.76 0.97, 84.47 -0.56, 151.8 0 M19.22 0 C58.82 -1.92, 100.6 -1.61, 151.8 0 M151.8 0 C162.85 1.78, 170.01 4.95, 171.02 19.22 M151.8 0 C166.26 -0.26, 172.52 4.9, 171.02 19.22 M171.02 19.22 C170.88 30.78, 170.41 38.37, 171.02 57.67 M171.02 19.22 C170.07 30.89, 171.48 42.14, 171.02 57.67 M171.02 57.67 C172.34 69.88, 165.58 77.52, 151.8 76.89 M171.02 57.67 C168.81 69.59, 163.11 77.87, 151.8 76.89 M151.8 76.89 C111.12 78.22, 69.64 77.67, 19.22 76.89 M151.8 76.89 C110.17 75.84, 69.22 74.58, 19.22 76.89 M19.22 76.89 C6.13 77.92, -1.4 71.45, 0 57.67 M19.22 76.89 C8.09 75.32, 0.2 71.26, 0 57.67 M0 57.67 C0.74 44.42, 1.86 34.86, 0 19.22 M0 57.67 C0.17 49.51, 0.73 40.72, 0 19.22 M0 19.22 C-1.41 7.8, 6.33 0.11, 19.22 0 M0 19.22 C1.21 8.6, 5.4 -1.28, 19.22 0" stroke="#1e1e1e" stroke-width="2" fill="none"></path></g><g transform="translate(175.84429275854927 391.8611928821965) rotate(0 69.60993194580078 25)"><text x="69.60993194580078" y="0" font-family="Virgil, Segoe UI Emoji" font-size="20px" fill="#1e1e1e" text-anchor="middle" style="white-space: pre;" direction="ltr" dominant-baseline="text-before-edge">charlie@bitcoin</text><text x="69.60993194580078" y="25" font-family="Virgil, Segoe UI Emoji" font-size="20px" fill="#1e1e1e" text-anchor="middle" style="white-space: pre;" direction="ltr" dominant-baseline="text-before-edge">&lt;pubkey&gt;</text></g><g stroke-linecap="round" transform="translate(10 223.64965605313273) rotate(0 85.5090371000033 38.444843697224314)"><path d="M19.22 0 C60.97 1.43, 100.57 0.2, 151.8 0 M19.22 0 C57.95 -0.21, 95.62 -0.13, 151.8 0 M151.8 0 C163.72 0.7, 170.79 5.42, 171.02 19.22 M151.8 0 C166.27 0.98, 170.27 5.81, 171.02 19.22 M171.02 19.22 C171.21 28.12, 169.92 38.35, 171.02 57.67 M171.02 19.22 C170.99 31.06, 171.78 43.73, 171.02 57.67 M171.02 57.67 C169.61 69.4, 163.16 76.99, 151.8 76.89 M171.02 57.67 C171.54 69.38, 165.55 75.11, 151.8 76.89 M151.8 76.89 C109.82 77.89, 64.71 77.59, 19.22 76.89 M151.8 76.89 C106.66 76.41, 59.53 77.51, 19.22 76.89 M19.22 76.89 C6.82 75.29, 1.72 68.95, 0 57.67 M19.22 76.89 C8.31 78.05, 1.77 68.99, 0 57.67 M0 57.67 C1.24 41.51, 0.54 30.1, 0 19.22 M0 57.67 C-0.77 44.58, -0.67 31.84, 0 19.22 M0 19.22 C-0.39 4.88, 4.62 0.27, 19.22 0 M0 19.22 C-1.84 7.83, 8.48 0.6, 19.22 0" stroke="#1e1e1e" stroke-width="2" fill="none"></path></g><g transform="translate(41.41909416787348 237.09449975035704) rotate(0 54.089942932128906 25)"><text x="54.089942932128906" y="0" font-family="Virgil, Segoe UI Emoji" font-size="20px" fill="#1e1e1e" text-anchor="middle" style="white-space: pre;" direction="ltr" dominant-baseline="text-before-edge">bob@bitcoin</text><text x="54.089942932128906" y="25" font-family="Virgil, Segoe UI Emoji" font-size="20px" fill="#1e1e1e" text-anchor="middle" style="white-space: pre;" direction="ltr" dominant-baseline="text-before-edge">&lt;pubkey&gt;</text></g><g stroke-linecap="round" transform="translate(431.6515612811054 379.41578186340985) rotate(0 85.5090371000033 38.444843697224314)"><path d="M19.22 0 C48.11 2.8, 77.85 2.4, 151.8 0 M19.22 0 C52.3 -1.26, 84.68 -0.5, 151.8 0 M151.8 0 C166.18 -1.84, 169.29 6.14, 171.02 19.22 M151.8 0 C162.44 -1.43, 168.95 8.17, 171.02 19.22 M171.02 19.22 C171.32 29.73, 170.54 43.71, 171.02 57.67 M171.02 19.22 C171.49 32.2, 172.09 43.85, 171.02 57.67 M171.02 57.67 C169.77 69.01, 166.55 77.88, 151.8 76.89 M171.02 57.67 C169.25 68.39, 165.57 74.83, 151.8 76.89 M151.8 76.89 C115.65 75.67, 80.92 75.53, 19.22 76.89 M151.8 76.89 C111.13 76.5, 68.55 77.69, 19.22 76.89 M19.22 76.89 C6.07 77.8, -1.32 72.23, 0 57.67 M19.22 76.89 C8.33 76.74, 1.31 71.25, 0 57.67 M0 57.67 C0.98 44.99, -0.4 32.6, 0 19.22 M0 57.67 C0.39 41.81, -0.79 27.12, 0 19.22 M0 19.22 C0.06 7.23, 7.46 -0.05, 19.22 0 M0 19.22 C-1.53 4.88, 8.54 -0.92, 19.22 0" stroke="#1e1e1e" stroke-width="2" fill="none"></path></g><g transform="translate(466.6306530075726 392.86062556063416) rotate(0 50.529945373535156 25)"><text x="50.529945373535156" y="0" font-family="Virgil, Segoe UI Emoji" font-size="20px" fill="#1e1e1e" text-anchor="middle" style="white-space: pre;" direction="ltr" dominant-baseline="text-before-edge">lily@bitcoin</text><text x="50.529945373535156" y="25" font-family="Virgil, Segoe UI Emoji" font-size="20px" fill="#1e1e1e" text-anchor="middle" style="white-space: pre;" direction="ltr" dominant-baseline="text-before-edge">&lt;pubkey&gt;</text></g></svg>